<svg viewBox="0 0 35 35" fill="none" xmlns="http://www.w3.org/2000/svg">
<path d="M28.5 1C27.0413 1 25.6424 1.57946 24.6109 2.61091C23.5795 3.64236 23 5.04131 23 6.5V28.5C23 29.9587 23.5795 31.3576 24.6109 32.3891C25.6424 33.4205 27.0413 34 28.5 34C29.9587 34 31.3576 33.4205 32.3891 32.3891C33.4205 31.3576 34 29.9587 34 28.5C34 27.0413 33.4205 25.6424 32.3891 24.6109C31.3576 23.5795 29.9587 23 28.5 23H6.5C5.04131 23 3.64236 23.5795 2.61091 24.6109C1.57946 25.6424 1 27.0413 1 28.5C1 29.9587 1.57946 31.3576 2.61091 32.3891C3.64236 33.4205 5.04131 34 6.5 34C7.95869 34 9.35764 33.4205 10.3891 32.3891C11.4205 31.3576 12 29.9587 12 28.5V6.5C12 5.04131 11.4205 3.64236 10.3891 2.61091C9.35764 1.57946 7.95869 1 6.5 1C5.04131 1 3.64236 1.57946 2.61091 2.61091C1.57946 3.64236 1 5.04131 1 6.5C1 7.95869 1.57946 9.35764 2.61091 10.3891C3.64236 11.4205 5.04131 12 6.5 12H28.5C29.9587 12 31.3576 11.4205 32.3891 10.3891C33.4205 9.35764 34 7.95869 34 6.5C34 5.04131 33.4205 3.64236 32.3891 2.61091C31.3576 1.57946 29.9587 1 28.5 1Z" stroke="#F1F1F1" stroke-width="2" stroke-linecap="round" stroke-linejoin="round"/>
</svg>
