<svg viewBox="0 0 33 22" fill="none" xmlns="http://www.w3.org/2000/svg">
<g clip-path="url(#clip0_116_911)">
<path d="M27.4546 1.86385C31.0282 6.65425 32.793 12.0577 32.1333 18.2783C32.1305 18.3046 32.1155 18.3288 32.0917 18.3447C29.3856 20.1564 26.7637 21.2559 24.1785 21.9851C24.1584 21.9906 24.1369 21.9903 24.1169 21.9842C24.097 21.978 24.0797 21.9664 24.0674 21.9508C23.4702 21.1932 22.9275 20.3944 22.4521 19.5556C22.4248 19.5062 22.4497 19.4467 22.5059 19.4272C23.3677 19.1312 24.1872 18.7763 24.9755 18.3562C25.0376 18.323 25.0416 18.2419 24.9842 18.2029C24.8169 18.0897 24.6512 17.9707 24.4926 17.8517C24.4629 17.8297 24.423 17.8254 24.3893 17.8402C19.2717 19.9948 13.6656 19.9948 8.48738 17.8402C8.45376 17.8265 8.41382 17.8311 8.38494 17.8528C8.22673 17.9718 8.06061 18.0897 7.89489 18.2029C7.83754 18.2419 7.84229 18.323 7.90478 18.3562C8.69305 18.7684 9.51258 19.1312 10.3732 19.4287C10.429 19.4481 10.4555 19.5062 10.4278 19.5556C9.96268 20.3955 9.42002 21.1942 8.81171 21.9519C8.78521 21.9825 8.7417 21.9966 8.70057 21.9851C6.1277 21.2559 3.50578 20.1564 0.79962 18.3447C0.777075 18.3288 0.760859 18.3035 0.758486 18.2772C0.207128 12.8965 1.33081 7.44832 5.43277 1.86276C5.44265 1.84798 5.45768 1.83644 5.47509 1.82959C7.49344 0.985028 9.65576 0.363689 11.9158 0.0088444C11.9569 0.00307456 11.998 0.0203841 12.0194 0.0535606C12.2986 0.504329 12.6178 1.08239 12.8338 1.5548C15.216 1.22303 17.6354 1.22303 20.0675 1.5548C20.2834 1.09249 20.5915 0.504329 20.8696 0.0535606C20.8795 0.0371021 20.8948 0.0239164 20.9135 0.015886C20.9321 0.00785566 20.953 0.00539117 20.9732 0.0088444C23.2344 0.364771 25.3967 0.98611 27.4135 1.82959C27.4313 1.83644 27.4459 1.84798 27.4546 1.86385ZM14.0449 12.0945C14.0698 10.5038 12.7978 9.18757 11.2011 9.18757C9.61739 9.18757 8.35765 10.4923 8.35765 12.0945C8.35765 13.6963 9.64231 15.001 11.2011 15.001C12.7851 15.001 14.0449 13.6963 14.0449 12.0945ZM24.5586 12.0945C24.5835 10.5038 23.3115 9.18757 21.7152 9.18757C20.1312 9.18757 18.8714 10.4923 18.8714 12.0945C18.8714 13.6963 20.1561 15.001 21.7152 15.001C23.3115 15.001 24.5586 13.6963 24.5586 12.0945Z" fill="#5865F2"/>
</g>
<defs>
<clipPath id="clip0_116_911">
<rect width="33" height="22" fill="white"/>
</clipPath>
</defs>
</svg>
