<svg viewBox="0 0 29 30" fill="none" xmlns="http://www.w3.org/2000/svg">
<path d="M28.95 14.9958C28.9601 14.6393 29.051 9.54384 26.1378 6.2269C26.0083 5.9304 25.3944 4.73542 23.413 3.27495C22.1025 2.20746 20.7355 1.45398 20.6235 1.39348C20.6225 1.39298 20.6206 1.39198 20.6196 1.39148C20.496 1.32298 18.0798 0 15.1473 0C14.9246 0 14.7044 0.0134998 14.4865 0.0289996V0.0249996C12.2506 -0.0254996 10.0296 0.56999 8.6911 1.19548C7.50381 1.75047 6.18561 2.68096 6.09045 2.75295C4.4462 3.70494 1.32822 7.52538 1.08139 9.54984C0.0848949 10.8683 -0.747855 16.7907 1.08333 20.3982C2.36723 25.4116 7.20046 27.9205 7.58495 28.113C7.81874 28.2675 10.4527 29.953 13.6886 29.953C13.8243 29.953 14.645 30 14.9377 30C18.4353 30 23.6183 27.448 24.7032 25.4491C27.684 23.1921 29.2292 17.3757 28.95 14.9958ZM7.61152 22.5271C6.2257 20.2067 5.43594 17.1747 5.26688 16.4782C5.70547 15.7977 7.86898 12.4958 9.10168 11.5023C9.79966 11.6353 12.7143 12.1893 15.4632 12.7043C15.8086 13.6308 17.3239 17.7187 17.7576 19.2967C17.2794 19.8837 15.4009 22.1476 13.5514 23.9206C11.5879 23.9301 8.24816 22.7576 7.61152 22.5271ZM25.0326 6.2899C25.0268 6.51489 24.9751 7.31488 24.6051 8.23336C23.8704 7.84487 22.0238 7.01288 19.4927 6.87239C19.1096 6.2869 17.6683 4.24543 15.3917 2.82945C15.7033 2.19846 16.1371 1.42898 16.3907 1.19448C16.4728 1.17048 16.6003 1.14848 16.7945 1.14848C18.0151 1.14848 20.124 1.97597 20.3076 2.04947C20.5022 2.15596 24.2931 4.26893 25.0326 6.2899ZM4.72057 16.0057C3.06714 15.7137 2.08417 15.1817 1.79049 15.0018C1.17558 12.6933 1.67069 10.1983 1.74701 9.84084C2.3537 8.71785 4.08103 5.8554 5.22051 5.31191C6.40152 5.06242 7.87429 5.37241 8.47422 5.52391C8.4177 6.33139 8.30902 8.58736 8.63169 10.9548C7.3246 12.0438 5.25577 15.1782 4.72057 16.0057ZM14.3387 0.764987C14.7097 0.793487 15.2541 0.877485 15.627 0.991983C15.255 1.50397 14.8739 2.26296 14.6938 2.63796C13.9354 2.76645 11.0551 3.33644 8.79544 4.85292C8.33994 4.72792 6.96426 4.39443 5.66152 4.50943C5.98418 3.86294 6.46625 3.38494 6.51793 3.33594C6.69714 3.20295 10.147 0.704488 14.3387 0.758487V0.764987ZM23.5627 19.8112C22.9976 19.7872 20.8201 19.6587 18.4324 19.0782C17.975 17.4272 16.4646 13.3563 16.1192 12.4303C17.6002 10.2393 19.0599 8.17536 19.4656 7.60337C22.2131 7.75937 24.1424 8.79685 24.5158 9.01335C26.1074 11.6628 26.4566 14.3688 26.5044 14.8208C25.6591 17.5437 23.9873 19.3772 23.5627 19.8112ZM0.799301 13.2593C0.839876 13.8923 0.937932 14.5588 1.11521 15.2177C0.95194 15.6492 0.846156 16.0972 0.785776 16.5432C0.677577 15.4127 0.697381 14.2713 0.799301 13.2593ZM5.45768 24.9386C6.18609 24.2121 7.08405 23.5051 7.43232 23.2381C8.21966 23.5251 11.4531 24.6566 13.5142 24.6566C13.8654 25.1441 15.0135 26.6706 16.4211 27.8375C15.5449 28.725 14.2793 29.144 14.0557 29.2135C10.1301 29.3225 6.30685 27.0385 5.45768 24.9386ZM15.825 29.2075C16.2704 28.939 16.7346 28.5855 17.1186 28.138C17.7451 28.0485 20.4336 27.5695 22.8633 25.7221C23.0237 25.7401 23.2879 25.7621 23.583 25.7536C22.1252 27.232 18.5682 28.8835 15.825 29.2075ZM23.2753 25.0196C24.1482 22.6656 24.111 20.8907 24.068 20.3237C24.5472 19.8377 26.1914 18.0242 27.1039 15.2672C27.5956 15.3522 27.9153 15.4817 28.067 15.5542C28.1197 15.7542 28.2076 16.2162 28.1578 16.9167C27.7859 19.4382 26.502 23.2166 24.253 24.8871C24.0269 25.0066 23.6289 25.0326 23.2753 25.0196Z" fill="url(#paint0_linear_289_343)"/>
<defs>
<linearGradient id="paint0_linear_289_343" x1="28.136" y1="0.697675" x2="-2.49986" y2="27.0992" gradientUnits="userSpaceOnUse">
<stop stop-color="#CF3577"/>
<stop offset="1" stop-color="#64349E"/>
</linearGradient>
</defs>
</svg>
