<svg id="Layer_1" data-name="Layer 1" xmlns="http://www.w3.org/2000/svg" viewBox="0 0 512 512"><title>dribbble-glyph</title><path d="M393.59,197.86a150.1,150.1,0,0,0-32-47.44,149.12,149.12,0,0,0-47.46-32,149.25,149.25,0,0,0-28.07-8.71,150.57,150.57,0,0,0-60.14,0,149.14,149.14,0,0,0-75.52,40.72,150.89,150.89,0,0,0-18.22,22.09,147.33,147.33,0,0,0-13.76,25.36,149.2,149.2,0,0,0-8.73,28.08,151.06,151.06,0,0,0,0,60.14,149.91,149.91,0,0,0,22.49,53.43,152.89,152.89,0,0,0,18.22,22.09,149.23,149.23,0,0,0,189.11,18.22,149.62,149.62,0,0,0,40.3-40.31,149.44,149.44,0,0,0,13.78-141.65ZM256,128.46a127,127,0,0,1,84.23,31.83c-.32.49-18.48,28.14-66.63,46.18a647.19,647.19,0,0,0-47.67-74.41A127.61,127.61,0,0,1,256,128.46Zm-30.54,3.71,0,0-.39.08Zm-23.88,8.48A765.73,765.73,0,0,1,249,214.14c-61.23,16.28-114.37,15.63-117.75,15.58A127.69,127.69,0,0,1,201.59,140.66ZM161.16,341.23A127.1,127.1,0,0,1,128.48,256c0-1.34,0-2.68.11-4,2.25.06,65.26,1.48,130.92-18.16,3.66,7.15,7.16,14.41,10.34,21.66-1.68.49-3.35,1-5,1.54C196,279.24,161.11,341.15,161.11,341.15Zm96.69,42.31c-29.57,0-55.19-10.15-76.52-27v0a16.6,16.6,0,0,1-4.71-2.22c.93.76,1,1.44,2,2.18.23-.49,24.32-53.39,99.6-79.63.28-.1.33-.19.62-.27,17.95,46.63,26.16,85.69,28,96.83A123.19,123.19,0,0,1,257.85,383.54Zm69.42-21.76c-1.3-7.72-8.1-45.13-24.83-91.1,41.17-6.59,76.85,4.71,79.48,5.56A127.66,127.66,0,0,1,327.27,361.78Zm-32.6-111.22c-.9-2.2-1.81-4.38-2.75-6.59-2.65-6.24-5.51-12.42-8.48-18.49,50.36-20.55,70.81-50.13,71.06-50.48a127,127,0,0,1,29,79.72C381.65,254.33,338.49,245,294.68,250.56Z" fill="#434040"/><path d="M490.67,5A16.31,16.31,0,0,1,507,21.33V490.67A16.31,16.31,0,0,1,490.67,507H21.33A16.31,16.31,0,0,1,5,490.67V21.33A16.31,16.31,0,0,1,21.33,5H490.67m0-5H21.33A21.33,21.33,0,0,0,0,21.33V490.67A21.33,21.33,0,0,0,21.33,512H490.67A21.33,21.33,0,0,0,512,490.67V21.33A21.33,21.33,0,0,0,490.67,0Z" fill="#434040"/></svg>