<svg viewBox="0 0 36 41" fill="none" xmlns="http://www.w3.org/2000/svg">
<g filter="url(#filter0_d_289_333)">
<path d="M31.2589 26.9021C31.2589 29.5247 29.4269 31.5264 27.31 31.5264C25.1931 31.5264 23.3611 29.5247 23.3611 26.9021C23.3611 24.2795 25.1931 22.2778 27.31 22.2778C29.4269 22.2778 31.2589 24.2795 31.2589 26.9021Z" stroke="url(#paint0_linear_289_333)"/>
<path d="M23.9519 23.5777L24.4107 23.0493L30.6693 30.2585L30.2105 30.7869L23.9519 23.5777ZM27.5018 25.6285L27.9606 25.1001L28.8457 26.119L28.3869 26.6475L27.5018 25.6285ZM28.8462 27.1759L29.305 26.6475L30.1901 27.6659L29.7313 28.1944L28.8462 27.1759ZM26.1574 24.0811L26.6162 23.5526L27.5008 24.5716L27.0421 25.1001L26.1574 24.0811ZM25.7431 27.6787L26.2019 27.1503L27.0865 28.1698L26.6278 28.6983L25.7431 27.6787ZM27.0879 29.2267L27.5467 28.6983L28.4319 29.7173L27.9731 30.2457L27.0879 29.2267ZM28.8856 30.266L28.4221 30.7998L29.1173 31.6004C29.3026 31.4937 29.5343 31.3869 29.7197 31.2268L28.8856 30.266ZM23.2318 24.8214L23.9269 25.6221L24.3903 25.0883L23.5562 24.1275C23.4635 24.3944 23.3245 24.6079 23.2318 24.8214ZM24.3991 26.1324L24.8579 25.6039L25.7426 26.6235L25.2838 27.1514L24.3991 26.1324ZM25.7343 23.5937L26.1977 23.0599L25.5026 22.2593C25.3172 22.366 25.0855 22.4728 24.9001 22.6329L25.7343 23.5937ZM31.3417 28.9849L30.6466 28.1842L30.1831 28.718L31.0173 29.6788C31.1563 29.4653 31.249 29.2518 31.3417 28.9849Z" fill="url(#paint1_linear_289_333)"/>
<path d="M4.50444 26.8794C4.4932 26.7667 4.50558 26.7173 4.51018 26.7034L4.51625 26.6964L20.8683 7.86179L24.9794 12.5971L8.54639 31.5249C8.53312 31.5269 8.50741 31.5281 8.46318 31.5224C8.33514 31.5059 8.13714 31.4371 7.87549 31.2864C7.35942 30.9892 6.71867 30.4452 6.09474 29.7271C5.46982 28.9811 4.9903 28.2223 4.72479 27.6107C4.59083 27.3021 4.52195 27.055 4.50444 26.8794ZM8.55815 31.5215C8.55841 31.5218 8.55653 31.5228 8.55175 31.5239C8.55551 31.5218 8.5579 31.5213 8.55815 31.5215Z" stroke="url(#paint2_linear_289_333)"/>
<path d="M25.271 9.39453L31.8052 1.81485C31.7125 1.38783 31.5272 0.960804 31.2491 0.640536C30.9711 0.320268 30.6003 0.106756 30.2296 0L23.649 7.5263C23.0002 8.27359 21.9343 8.27359 21.2392 7.5263L25.2246 12.1168C24.5758 11.3695 24.5758 10.1418 25.271 9.39453Z" fill="#8D99B2"/>
<path opacity="0.5" d="M9.09728 26.5809C8.77288 26.9545 8.44849 27.8086 8.44849 28.3423C8.49483 29.143 9.05094 31.7052 9.05094 31.7052L25.6415 12.5958L23.4171 10.0337C23.4171 10.0337 12.6656 22.4174 9.09728 26.5809Z" fill="url(#paint3_linear_289_333)"/>
<path opacity="0.15" d="M8.72661 26.1552C8.40221 26.5289 7.66074 26.9025 7.19731 26.9025C6.54852 26.8491 4.27774 26.1552 4.27774 26.1552L20.8683 7.0459L23.0928 9.60804C23.0928 9.66142 12.3413 22.0451 8.72661 26.1552Z" fill="#3E4347"/>
<path d="M25.2709 12.1168C24.9002 11.6898 24.7611 11.1026 24.8075 10.5155C24.3904 10.302 23.927 10.0351 23.4636 9.60804C23.1392 9.02088 22.8611 8.54048 22.6757 8.06008C22.166 8.11345 21.6562 7.95332 21.2855 7.5263C21.2855 7.5263 21.6562 8.80737 22.6757 10.5155C24.1587 11.6898 25.2709 12.1168 25.2709 12.1168ZM31.0174 2.77566L31.8052 1.81485C31.7125 1.38783 31.5271 0.960804 31.2491 0.640536C30.971 0.320268 30.6003 0.106756 30.2295 0L29.4417 0.907426C29.7661 1.01418 30.1369 1.22769 30.4149 1.60134C30.7393 1.92161 30.9247 2.34863 31.0174 2.77566Z" fill="#3E4347"/>
</g>
<defs>
<filter id="filter0_d_289_333" x="0" y="0" width="35.8053" height="40.0264" filterUnits="userSpaceOnUse" color-interpolation-filters="sRGB">
<feFlood flood-opacity="0" result="BackgroundImageFix"/>
<feColorMatrix in="SourceAlpha" type="matrix" values="0 0 0 0 0 0 0 0 0 0 0 0 0 0 0 0 0 0 127 0" result="hardAlpha"/>
<feOffset dy="4"/>
<feGaussianBlur stdDeviation="2"/>
<feComposite in2="hardAlpha" operator="out"/>
<feColorMatrix type="matrix" values="0 0 0 0 0 0 0 0 0 0 0 0 0 0 0 0 0 0 0.25 0"/>
<feBlend mode="normal" in2="BackgroundImageFix" result="effect1_dropShadow_289_333"/>
<feBlend mode="normal" in="SourceGraphic" in2="effect1_dropShadow_289_333" result="shape"/>
</filter>
<linearGradient id="paint0_linear_289_333" x1="31.4991" y1="22.0162" x2="21.2537" y2="29.9509" gradientUnits="userSpaceOnUse">
<stop stop-color="#CF3577"/>
<stop offset="1" stop-color="#64349E"/>
</linearGradient>
<linearGradient id="paint1_linear_289_333" x1="31.1049" y1="22.4765" x2="21.7667" y2="29.7087" gradientUnits="userSpaceOnUse">
<stop stop-color="#CF3577"/>
<stop offset="1" stop-color="#64349E"/>
</linearGradient>
<linearGradient id="paint2_linear_289_333" x1="25.0097" y1="7.67882" x2="0.0903504" y2="26.9781" gradientUnits="userSpaceOnUse">
<stop stop-color="#CF3577"/>
<stop offset="1" stop-color="#64349E"/>
</linearGradient>
<linearGradient id="paint3_linear_289_333" x1="25.1395" y1="10.5377" x2="4.03718" y2="25.4719" gradientUnits="userSpaceOnUse">
<stop stop-color="#CF3577"/>
<stop offset="1" stop-color="#64349E"/>
</linearGradient>
</defs>
</svg>
