<svg id="Layer_1" data-name="Layer 1" xmlns="http://www.w3.org/2000/svg" viewBox="0 0 512 512"><title>tennis-racket-handdrawn</title><path d="M422.78,510.19s1.95-1.1,1.9-1.11-1.94,0-1.93,0A5.63,5.63,0,0,0,422.78,510.19Z" fill="none" stroke="#666" stroke-width="2.67"/><path d="M422.74,510.2s2-1.1,2-1.12-2,0-2,0S422.76,510.19,422.74,510.2Z" fill="none" stroke="#4c4c4c" stroke-width="2"/><path d="M264.73,367.59s3.15,1.76,3.13,1.81-4,1.84-4.14,2c-.49.86,2.3.49,1.94,1.12-.23.4-8.7-4.09-9-3.51-.58,1,6.2,2.21,5.61,3.24-.24.42-9.92-.73-10.08-.45-.56,1,16.91,8.79,16.49,9.54s-21.61-10.44-22.36-9.15c-.9,1.55,24.06,12.5,23.45,13.56-.27.47-16.08-6.83-16.46-6.17-.68,1.18,9.93,4.65,9.46,5.47s-13.49-7.89-13.91-7.16c-.59,1,12.36,5.64,11.7,6.77-.39.68-14.93-4.5-15.25-3.94-.56,1,23.56,12.07,22.88,13.24-.39.68-13-3.81-13.43-3-1.06,1.85,11,4.25,10.09,5.83-.57,1-20.65-8.39-21-7.74-.74,1.28,25,12.73,24.26,14-.48.84-14.21-8-14.73-7.07s14,6.94,13.52,7.82-17.2-6.69-17.69-5.85c-.76,1.32,19.66,9.94,19,11-.31.53-16.29-8.1-16.65-7.48-.76,1.32,10,4.14,9.32,5.39-.42.73-15.5-5.19-15.79-4.68-.79,1.38,24.14,12.55,23.53,13.61-.47.81-16.05-8.42-16.68-7.33s14.06,5.7,13,7.52c-.25.43-9.77-3.79-10-3.34-.88,1.52,10.07,4.1,9.32,5.39-.55,1-13.53-8.47-13.84-7.94-.72,1.25,10.6,3.67,9.53,5.51-.25.43-12.62-3.9-12.85-3.49-.59,1,23.29,11.5,22.44,13-.57,1-19.49-8.06-20.15-6.92-.55,1,13.63,5.89,12.77,7.39-.43.75-12.66-4.86-13-4.29-.62,1.07,15.43,7.29,14.72,8.51-.46.81-15.69-8.34-16.13-7.58-.91,1.58,18.65,9.7,18.18,10.51-.62,1.08-18.35-10.47-18.88-9.54s14.3,6.32,13.45,7.78c-.3.53-9.9-5.53-10.1-5.18-.79,1.38,21.68,10.88,21,12.13-1,1.75-27-12.56-27.74-11.26-.56,1,26.36,13.71,25.69,14.86-.89,1.55-23.58-11.46-24.08-10.58-.79,1.38,26.33,13.42,25.55,14.78s-21.3-13.49-22-12.26,17.51,8.45,16.78,9.71c-.43.75-12.81-6.51-13-6.1-.95,1.64,14.09,7,13.58,7.86s-19.47-9-20.2-7.71,24.13,12.18,23.36,13.51c-.63,1.09-15.58-9.74-16-9.08-1,1.7,16.82,8.56,16.32,9.44-.27.47-15.38-6.78-15.78-6.1-.66,1.14,16.46,7.34,15.51,9-.44.77-13.8-6.43-14.15-5.83-1,1.67,11.9,5.77,11.42,6.6-.67,1.16-21.49-9.31-22.31-7.89s21.5,11.35,21,12.16c-.66,1.14-18.22-7.38-18.67-6.59-.59,1,19.61,10.16,19.1,11s-21.54-12.21-22-11.45c-.59,1,18.66,9.29,18,10.42-.22.38-6.73-.9-6.89-.63-.6,1,15.51,7.29,14.78,8.55-.35.61-16.53-9.8-16.86-9.24-.72,1.24,11.35,4.69,10.54,6.1-.29.51-12.29-4.59-12.75-3.79-.6,1,20.06,10.47,19.57,11.32-.62,1.07-23.35-12.14-24.17-10.73s14.16,5.85,13.15,7.61c-.13.22-7.81-1.7-8-1.33-.57,1,17.88,8,16.86,9.75-.43.75-12.72-6.88-13-6.43-.81,1.4,12.68,5.2,11.76,6.8-.32.56-11.86-6.22-12.32-5.42-.68,1.17,13.77,5.57,12.74,7.37-.73,1.26-22.64-9.14-23.29-8s24,11.92,23.17,13.4-21.14-8.75-21.77-7.65c-.77,1.34,19.81,8.65,18.6,10.76-.52.9-20.05-8.85-20.72-7.69-1,1.77,26.72,14.2,26.18,15.14-.88,1.53-24.56-10.44-25.28-9.18-1,1.7,24,11.79,23.06,13.34-.3.53-16.81-9.15-17.21-8.45-.91,1.58,19.33,8.88,18.34,10.61-.89,1.54-24.47-12.86-25.43-11.2-.81,1.4,25.56,13,24.79,14.34-.43.74-15.5-8.71-16.09-7.7-.71,1.23,16.38,8.41,15.92,9.21-.75,1.3-19.3-12.32-20.07-11s14,6.68,13.36,7.73c-.4.7-12-5.21-12.24-4.84-.86,1.49,5.89,1.47,5.05,2.92-.5.86-12.87-6.36-13.11-5.95-.71,1.23,10,4.67,9.53,5.51-.07.13-3.62.29-3.73.48-.45.78,3.14,1,2.79,1.61-.07.11-2.57-1.39-2.66-1.22-.39.68,2.44.65,2.11,1.22-.06.11-1.78-.45-1.83-.36-.3.52.9-.14.62.36-.16.28-6.17-2.59-6.34-2.3s10.45,5.53,10.23,5.92-8-1.9-8.13-1.62c0,0,2.79,1.56,2.77,1.6" fill="none" stroke="#999" stroke-linecap="round" stroke-linejoin="round" stroke-width="0.97"/><path d="M300,31.27c-.72,1.24,37.79,20,37,21.39-1.35,2.33-32.59-20.78-33.45-19.29-1.3,2.25,26.14,13.38,25.39,14.69-.47.81-15.92-8.35-16.46-7.42-1.1,1.91,22.15,11.09,21.4,12.38S313.3,40.49,312.63,41.67c-1,1.74,27.18,13.45,26.2,15.15-.52.91-25-14.36-25.88-12.89-1,1.81,20.53,10.58,20,11.55-.16.27-8.07-4.47-8.26-4.13-.7,1.21,11.65,5.36,11.05,6.39-.29.5-12.54-6.24-12.87-5.67-.71,1.23,20,9.33,19.05,11-.5.87-20.21-12.9-21-11.54s20.16,10,19.46,11.25c-.41.72-10.58-6.68-11-5.95-.92,1.6,4.26,1,3.63,2.1,0,.05-.41,1.24-.45,1.31-.66,1.14,1.73-.36,1.14.66-.14.24-7.21-3.28-7.34-3.05-.73,1.27,15.18,7.46,14.61,8.45-.31.54-12.82-4.26-13.25-3.52-.81,1.41,16.62,7.92,15.89,9.19-.14.25-4.52,1.56-4.6,1.7-.58,1,6.07,2.68,5.71,3.3s-10.88-4.09-11.09-3.73c-.65,1.12,16.59,8.79,16.24,9.4s-10.79-4.91-11.2-4.21c-.64,1.1,3.62,1.27,3.27,1.89-.17.3-6.57.86-6.72,1.11-.39.68,13.16,6.05,12.48,7.22-.15.25-4.46-.44-4.61-.19-.67,1.16,9,4.07,8.52,4.93s-11.46-7-11.71-6.51c-.4.69,13.89,6.63,13.28,7.68-.17.3-9.47-2.7-9.75-2.21-.59,1,6.5,2.64,6,3.48-.21.37-9.73-3.08-10-2.58-.64,1.1,14.81,7.08,14.16,8.19-.2.36-6.13-3.7-6.35-3.32-.5.87,5,2.1,4.66,2.7-.14.24-5.36.15-5.51.4-.3.52,2.12,0,1.6.93-.23.41-6.84-4.13-7-3.89-.46.8,10.94,5.63,10.64,6.16-.13.22-4.89,0-5.06.28-.42.74,5.24,1.9,4.75,2.75-.25.43-8.53-5-8.84-4.42s7.48,3.69,7.21,4.17c-.09.16-.1,4.15-.17,4.26-.34.59,4.78,2.09,4.48,2.59s-8.37-2.72-8.67-2.2c-.52.9,2.6.78,2.29,1.32,0,0,.63.83.6.88-.45.78,4.45,1.85,4.13,2.39-.21.36-7.16-.52-7.33-.23-.28.49,13.39,6.47,12.84,7.43-.16.28-4.65-1.79-4.81-1.5-.29.51,3.39.74,2.86,1.65-.21.36-9.76-1.15-10.1-.55-.54.94,5.35,2.15,4.94,2.86,0,.08-1.07,2.38-1.15,2.51-.27.47,3.82,1.1,3.34,1.93,0,0-.73.26-.75.3-.49.84,1-.32.62.36,0,.07.81,1.87.77,1.95-.42.73,2.07.36,1.71,1-.26.46-10.24-5.09-10.59-4.47s7.2,3.33,6.84,4c-.1.17-3.18-.08-3.25,0-.51.89,3.53,1,3.06,1.77-.09.16-4.16-1.79-4.27-1.6-.45.78,4.39,1.62,4,2.31-.12.21,4.12,3.33,4,3.5-.31.54,2.54.7,2.21,1.28s-7.23-3.37-7.46-3,3.12.84,2.71,1.56c-.07.12-4.08-.64-4.16-.48-.53.92,9.76,4.8,9.4,5.43-.15.25-8.12.27-8.29.56-.48.82,3.15.71,2.67,1.55-.12.22-6.42-3.93-6.57-3.66-.36.63,8.86,4.38,8.53,4.94-.17.3-4.61-1.83-4.69-1.69-.44.77,3,.79,2.59,1.5-.09.16-2.63.68-2.7.8-.49.85,2.89.55,2.41,1.39-.15.27-4.64,1.35-4.77,1.58-.49.85,9.43,4.81,9.15,5.29-.12.21-3.79.57-3.93.8-.32.55,3.71,1.48,3.42,2s-7.08-2.19-7.34-1.74c-.45.79,2.68.53,2.24,1.3-.07.11-2.58,1.28-2.63,1.36-.49.85,5.31,2,4.83,2.79-.34.6-10.17-5.72-10.44-5.25s5.26,1.94,4.78,2.77c0,.07-1.55-.09-1.57,0-.5.86,1.32-.21.9.52-.06.11,1.08,2.12,1,2.23-.43.75,2.25.74,2,1.16,0,.07-2.15.14-2.23.27-.41.72,2.15.71,1.92,1.11,0,0,.32.33.31.35-.24.42,5.77,2.81,5.54,3.21s-6-2.6-6.19-2.25,3.55,1.43,3.28,1.9c-.13.23-5.74.39-5.9.66-.32.55,2.2.48,1.85,1.07-.11.2,2.18,3,2.1,3.13-.49.85,4.2,1.3,3.71,2.15-.17.29-8.76-1.76-8.94-1.44-.37.64,2.21.63,1.93,1.12-.09.16-2.56,1.45-2.63,1.56-.46.79,2.08.54,1.79,1-.08.15-4.5,1.24-4.61,1.42-.22.37,3.26,1.16,2.95,1.71-.1.18-.35,4.42-.47,4.62-.45.78,5.45,2.6,5.21,3-.36.63-9.82-4.86-10.05-4.45-.34.59,3.13.72,2.66,1.54,0,.09-1.32,2.69-1.41,2.84-.46.8,2.14.4,1.78,1-.12.22-6.57.35-6.71.61s8.63,4,8.21,4.75c-.12.21-5.53-.36-5.7-.07s2,.11,1.57.91c-.19.32-5.22-1.37-5.34-1.16-.36.63,3.89,1.33,3.49,2-.07.13-4.11,0-4.26.22-.3.52,1.31.26,1.09.63-.12.21,2.74,4,2.6,4.24-.23.4,4.05,1.46,3.67,2.12-.17.3-7.18-.31-7.37,0-.37.64,2.12.36,1.75,1-.18.31-7.63-2.45-7.78-2.2-.46.79,1.15,0,.85.49,0,.06,0,2-.07,2-.41.72,5.79,2.81,5.56,3.21-.14.24-2.19,3-2.31,3.19-.33.57,6.21,2.55,5.76,3.33-.25.43-9.44-1.77-9.6-1.51-.33.57,2.5.35,2,1.17-.16.27-5.53,1.73-5.69,2-.31.53,3.08.83,2.67,1.54,0,.07-1.8,1.82-1.85,1.91-.28.49,2.1.21,1.66,1-.22.38-9.49-5.1-9.86-4.46s6,2.67,5.66,3.27c-.14.25-1.61,4.26-1.74,4.48-.35.61,6.58,3.07,6.26,3.62s-11.68-3.14-12.06-2.48,10.15,4.81,9.69,5.61c-.24.42-8-3.62-8.23-3.24-.45.78,2.75,1.06,2.52,1.46,0,.08-1.67-.92-1.72-.83-.43.75,6.81,3.35,6.56,3.79s-14.74-5.8-15.09-5.19,5.2,2.13,4.82,2.79c0,.05-.58,1.29-.63,1.37-.52.9,3.41.95,3,1.72s-10-1.28-10.35-.66c-.5.87,1-.11.72.42-.13.23-2.28,3.56-2.36,3.7-.44.76,4.38,1.68,4,2.32-.11.2-3.81-.39-3.95-.15-.45.78,4.24,1.27,3.73,2.16-.1.17-5.65-.87-5.8-.61-.46.81,4.31,1.48,3.88,2.24s-9.8-5.79-10.06-5.34,6.72,2.82,6.26,3.62c-.09.16-2.63.92-2.7,1-.27.47,4.68,1.52,4.17,2.41-.17.29-5.39-.65-5.52-.42-.35.6,9.79,4.4,9.25,5.35-.31.54-16.24-8.81-16.6-8.19s16.09,8.49,15.74,9.1-11.69-5.38-12-4.87c-.58,1,7.66,3.57,7.29,4.22-.6,1-15.57-8.11-16.17-7.08s9.36,4.4,8.92,5.16c-.09.15,1.51,2.22,1.42,2.38-.37.64,4.47,1.64,4.06,2.35s-17.13-7.39-17.7-6.39,8.57,3.58,8,4.61c-.18.31-6-2.43-6.22-2.07-.64,1.11,6.36,2.25,5.74,3.32-.11.19-5.17-1.37-5.33-1.1-.43.75,7.87,3.39,7.37,4.26-.21.36-10.48-5.47-10.75-5-.52.91,7.78,3,7.13,4.12-.18.31-6.12-1.74-6.32-1.39-.43.75,10.35,5.09,10,5.76-.29.5-15-4.79-15.33-4.19-.66,1.15,10.23,4.16,9.47,5.48-.95,1.65-24.86-11.46-25.62-10.15s17.24,9,16.84,9.74c-.26.45-13.87-6.08-14.29-5.35-.6,1,14.49,7.17,14,8.08-.39.68-14.54-8.8-14.83-8.29-.74,1.28,14.35,7.34,13.93,8.06-.54.93-19.4-10.74-19.94-9.82s17.65,8.41,16.87,9.76c-.92,1.6-23.17-12.76-24-11.26-.66,1.14,21.15,9.85,20.12,11.64-.46.8-22.52-13.47-23-12.55s25.39,13,24.67,14.27c-.9,1.57-33.32-18.35-34.26-16.73-.7,1.22,29,14.6,28.05,16.22" fill="none" stroke="#999" stroke-linecap="round" stroke-linejoin="round" stroke-width="0.97"/><path d="M296.28,11.07c-.27.46,2.21.59,1.91,1.1s-14.74-5-15.13-4.31c-1.86,3.23,31.22,14.89,29.85,17.27-1.17,2-41.56-26.22-43.24-23.3C267.61,5.41,316.54,24,314.41,27.71,313,30.09,263.11,1.26,262.17,2.88,260.38,6,330.07,39,328.71,41.37s-73.32-44.76-76-40.16c-3,5.13,83.35,43.56,81.34,47-1.36,2.35-75.87-44.93-77.77-41.63-.88,1.52,18,9,17.37,10S251.22,2.93,250.51,4.16s17.12,8.14,16.36,9.46S241.48,2.51,240.92,3.49s21.51,11,20.89,12.08c-.51.89-16.64-6.28-17.26-5.2-.86,1.49,5.73,1.6,5,2.89-.55,1-20.14-8.07-20.51-7.44-.54.94,17.56,8.89,17,9.84-.29.5-8.68-4.29-9-3.75-.41.71,6.06,2.67,5.7,3.3s-14-4.6-14.37-3.93c-.51.89,10.77,5.26,10.35,6-.22.38-12-5.38-12.25-4.94-.49.86,7.32,3.15,6.85,4s-14.57-4.62-14.85-4.14c-.49.85,13.64,7,13.26,7.67-.23.39-8.15-3.1-8.45-2.58s3.05.3,2.42,1.4c-.18.31-7.17-2.12-7.36-1.8-.52.9,5.72,2.29,5.28,3.06-.21.37-5.23-3.23-5.34-3-.42.73,5.9,2,5.27,3.05-.19.34-10.18-2.38-10.37-2.05-.33.58,11.42,5.49,10.94,6.33-.34.58-11.87-3-12.25-2.35s1.23-.38.76.44c-.12.2-3.33,1.09-3.42,1.24-.33.58,2.82.75,2.44,1.41-.14.24-5-1.43-5.1-1.2-.49.85,6.1,2.95,5.85,3.38s-7.25-3.29-7.46-2.93c-.29.5,1.45-.2,1,.58-.07.12,2,1.69,1.91,1.77-.42.73,8.83,4.23,8.45,4.89-.65,1.13-17.89-6.68-18.38-5.84-.29.5,13.09,6.79,12.75,7.38-.48.83-13.08-4.84-13.35-4.37-.4.7,12.86,6.52,12.46,7.21s-8.94-5.38-9.24-4.87c-.38.67,4.07,1.5,3.7,2.14,0,.07-.88.88-.9.91-.48.83.78-.15.52.3s-9.15-2.07-9.47-1.51,10.46,5.16,10.07,5.83c-.11.19-2.7-1.56-2.77-1.44-.49.85,3.27,1.31,3,1.75-.07.12-4.11.42-4.21.6-.32.56,2.45.35,2,1.15-.24.42-7.78-2.58-8-2.26-.47.81,2.58,1,2.34,1.35s-9.73-1.42-10.08-.81,7.69,3.92,7.46,4.32-7.07-.26-7.23,0c-.28.49,5.57,2.66,5.32,3.08s-8.64-4.13-8.81-3.84c-.28.48,4.45,1.86,4.14,2.4s5.53,6.11,5.34,6.44c-.28.49,1.21-.1.86.5-.14.24-6.7-3.66-6.83-3.44-.34.59,2.34.47,2,1.13-.07.12-2.17,2.07-2.29,2.27-.28.49,6,2.91,5.73,3.31s-8.45-2.28-8.73-1.8c-.37.64,2.5.34,2,1.17L184.35,57c-.27.46,3.35.83,2.87,1.66-.17.29-5.17-2.15-5.27-2-.37.65,2.17.27,1.75,1-.06.1-2.37.14-2.45.28-.31.54,2.12.12,1.64.95-.27.47-8.94-.27-9.18.15s9.1,4.36,8.7,5-9-.86-9.28-.42.91-.6.42.24c-.11.18-3.87,1.74-4,2-.41.71,8.52,4.43,8.3,4.8s-9-.35-9.27.08c-.42.73,7.26,3.32,6.88,4,0,0-1.51.55-1.55.61-.4.69,3.24.86,2.8,1.62-.29.5-8.49-2.11-8.8-1.58s9.56,4.74,9.22,5.33c0,.06-.23,1.36-.28,1.44-.34.58,2.63,1,2.42,1.4S173,80,172.73,80.41c-.41.71,1-.09.73.42-.09.15-2.65.6-2.7.68-.49.85,2.13.13,1.66,1-.27.47-7.22-2.84-7.35-2.62-.46.8,3.5,1.29,3.18,1.84-.07.13,1.46,3.24,1.35,3.42-.41.71,1.94.38,1.62.93,0,.07-1.64-.77-1.7-.67-.38.65,1.95.39,1.63.94,0,.07.62,1,.59,1-.33.57,1.14-.06.83.48-.09.15-3.51-.87-3.6-.72-.28.49,2.06.42,1.72,1-.06.11-2.57,1.75-2.64,1.85-.31.53,2.34.28,1.87,1.08-.11.2-2,3-2,3.16-.4.7,1.51.2,1.22.71-.07.12-2.29.1-2.35.2-.43.75,2.24.37,1.84,1.06-.15.26-3.64,2.24-3.79,2.5-.24.42,1.42.24,1.17.68-.13.22,3.62,7.07,3.45,7.36-.49.85,1.68.14,1.32.76-.18.31-5.85-3.62-6-3.36-.37.64,2.49.61,2.13,1.23-.09.16-2.68,2.37-2.79,2.56-.25.44,2.54.68,2.2,1.27-.07.12-2.32-.13-2.36-.07-.43.74,2.51.68,2.18,1.26-.05.09-2.27-.08-2.35.06-.22.39,2.63.42,2.15,1.25-.05.09-1.56,3-1.66,3.17-.48.83,3,1.22,2.78,1.61-.09.16-1.41,2.16-1.46,2.25-.38.65,5.36,2.57,5.13,3s-8-2.39-8.16-2.08c-.33.57,3,.89,2.62,1.51-.07.13-4-.87-4.1-.74-.39.68,4,1.25,3.56,2.06,0,.08.27,2.14.2,2.26-.35.61,5.52,2,5,2.89-.25.43-7.42-3.62-7.57-3.36-.46.8,3.2.67,2.69,1.55-.32.56-8.73-4.45-9-4-.37.64,3.38,1.08,3,1.73-.16.27,3.26,5.37,3.07,5.71-.44.76,3,1.08,2.71,1.57-.08.13-2.76,2.05-2.87,2.26-.52.9,3.45,1.07,3,1.76-.09.16-3.07,1.32-3.19,1.52-.31.54,3.74,1.23,3.34,1.93-.08.13-2.81.67-2.89.8-.4.7,2.3.5,1.94,1.12-.22.38-6.55,1.19-6.68,1.4-.36.62,11.88,6,11.51,6.66-.14.24-3.3,1.8-3.38,1.94-.3.53,2.08.49,1.77,1s-7.46-4.05-7.62-3.78c-.52.9,7,3,6.56,3.79-.19.33-6.35-.22-6.57.16-.36.63,8.31,3.79,7.87,4.55-.06.11-.84,1.61-.87,1.66-.46.79.71-.23.44.25-.08.14-2.06,1.42-2.11,1.51-.38.66,7.43,3.33,7,4.06-.12.21-4.41-.56-4.5-.4-.56,1,.71-.76.2.12-.07.12-3.91-1.77-4-1.54-.51.88,5.46,2,5,2.88-.21.37-6.74.4-6.87.63-.29.51,4.4,1.62,4,2.32-.19.33-5.42-.37-5.55-.13-.35.6,5.88,2,5.25,3-.19.34.73,5.6.61,5.82-.57,1,11.33,5.25,10.77,6.23-.33.58-9.65-2-9.83-1.72-.59,1,8,3.18,7.36,4.26-.06.11-2.13-.82-2.19-.71-.5.87,6.78,3.19,6.46,3.74s-10.17-5-10.37-4.65c-.48.83,8.55,3.55,7.95,4.6-.09.16-3.54.76-3.59.86-.64,1.11,6.3,2.68,5.88,3.4-.32.55-8.57-3.91-8.75-3.59-.74,1.28,7.57,3.42,7.16,4.14s-11.58-6.36-11.81-6c-.79,1.37,18.79,9.11,18,10.43-.39.67-11.41-1.65-11.61-1.3-.81,1.4,17.17,8.6,16.6,9.6-.31.54-17.35-5.88-17.88-5-.72,1.26,15.08,6.94,14.31,8.27-.21.36-7.37-2.33-7.64-1.86-.55.95,22.87,11.77,22.24,12.86S174,205.45,173.28,206.68c-1.1,1.91,19.36,8.89,18.36,10.62-.16.28-5.8,2-5.9,2.16-2.95,5.11,81.54,39.85,78.38,45.33-2.27,3.94-74-48.38-76.75-43.61-2,3.41,68.47,34,66.07,38.21-2.59,4.5-67.32-41.56-69.32-38.09-2.84,4.93,79.25,42.29,77.71,44.95-2.43,4.21-68.31-43.66-70.58-39.71-1.61,2.8,60.12,31.46,58.69,33.94-1.2,2.09-56.12-34.14-57.31-32.07-3,5.15,65,32.6,62.81,36.33-1.53,2.66-56.87-30.88-57.94-29-1.72,3,50.94,25.62,49.27,28.5s-44.5-24-45.48-22.27C200,244.22,231.66,255.6,230,258.53c-.38.66-22.07-11.39-22.7-10.3-.81,1.41,21.48,11.26,21,12.13-.22.39-11.51-6.57-11.81-6.06-.44.77,5.24,2.1,4.84,2.8" fill="none" stroke="#999" stroke-linecap="round" stroke-linejoin="round" stroke-width="0.97"/><path d="M176.06,180.53s2.74,1.56,2.73,1.58c-.11.2-2.76-1.7-2.83-1.58s2.88,1.63,2.87,1.66c-.17.29-6.17-1.92-6.37-1.58s7.8,4.21,7.67,4.44-5.15-2.42-5.31-2.15c-.26.45,3.87,1.66,3.62,2.09s-10.84-5-11.19-4.4c-.48.83,5.17,2.4,4.92,2.84,0,0,.19.72.17.74-.36.63,4.06,1.63,3.75,2.17-.15.26-6.76-2.54-6.93-2.24-.51.88,12.5,5.62,11.8,6.83-.36.63-14.74-9.24-15.31-8.25s14.32,7,13.78,8c-.4.69-10.13-6.37-10.53-5.68-.72,1.26,9.31,4.24,8.81,5.1-.19.34-7.89-3.62-8.16-3.15-.54.94,9.56,4.41,9.07,5.25-.18.32-9.61-4.78-9.79-4.47-.62,1.08,11.69,5.63,11.2,6.48-.28.48-11.44-3.34-11.81-2.69-.75,1.31,15.08,7.14,14.4,8.33-.13.23-4,1.86-4.09,2-.58,1,6.1,2.7,5.75,3.32s-11.22-4.3-11.43-3.93c-.67,1.16,17.28,9.16,16.92,9.79s-11.41-5.33-11.84-4.58c-.67,1.16,4.55,1.77,4.18,2.42-.19.33-7.34.38-7.5.66-.43.75,14.94,6.93,14.2,8.21-.19.32-5.66-1.24-5.85-.9-.74,1.29,10.89,5,10.34,6s-13.19-8-13.48-7.53c-.44.77,15.78,7.57,15.1,8.74-.19.33-10.56-3.41-10.88-2.87-.66,1.15,8.46,3.64,7.92,4.58-.24.42-10.94-3.87-11.27-3.3-.71,1.24,16.85,8.08,16.13,9.33-.27.46-8-4.91-8.24-4.41-.56,1,7.05,3.18,6.66,3.85-.16.28-6.13-.34-6.3-.05-.35.61,4.8,1.37,4.2,2.43-.32.56-9.34-5.69-9.52-5.36-.54.93,13.61,7.06,13.26,7.67-.13.22-4.83,0-5,.31-.51.89,1.2-.67.61.35-.17.29-5.82-3.15-6-2.79-.41.71,10.79,5.47,10.46,6l-1.8,3.32c-.43.74,8.71,4.18,8.34,4.82s-10.82-4.37-11.22-3.68c-.66,1.15,6.8,3,6.4,3.7-.08.15-3.16-1.52-3.25-1.35-.58,1,8.72,4.11,8.32,4.81-.28.49-9.42-2-9.65-1.57-.38.66,18.33,8.91,17.6,10.18-.32.55-8.66-4.46-9-3.91s8.52,3.27,7.8,4.51c-.26.44-11.89-2.56-12.31-1.83-.76,1.31,10.95,5,10.38,6,0,.08-2,1.81-2.12,1.95-.38.66,1.55-.66.87.51,0,0-.5.4-.52.44-.69,1.19,6.88,2.69,6.33,3.66-.08.14-3.93-1-4-.82-.6,1,8.06,3.47,7.54,4.36-.39.68-14.88-8.17-15.41-7.25-.42.74,13.34,6.51,12.82,7.42-.25.44-7.86-3.06-8-2.73-.75,1.31,9.9,4.14,9.21,5.33-.22.38-9.63-5.29-9.89-4.85-.66,1.15,10.81,4.9,10.22,5.91,0,.06-1.42.29-1.44.34-.46.8,9,4.06,8.5,4.91s-12.38-6.77-12.79-6.05,9.6,4.13,9,5.2c-.16.28-8.88-3.68-9.08-3.33-.78,1.36,16.21,8.12,15.67,9.06-.1.17-4.85,2.29-5,2.48-.7,1.22,2-.49,1.29.75-.21.36-10.63-6.61-10.89-6.16-.54.93,15.35,7.77,14.87,8.6s-10.31-5.38-10.5-5c-.66,1.14,5.6,1.83,5,2.89-.15.27,2.86,3.74,2.74,3.95-.74,1.28,2.68-.15,1.95,1.13-.22.38-6.93-.1-7.11.22-.75,1.31,16.46,8.53,16,9.27-.25.44-8-2.24-8.33-1.74-.49.85,10.71,5.17,10.27,5.94-.24.42-7.07-2.19-7.33-1.73-.7,1.21,2.77,0,2.09,1.21-.11.19-4.89-.14-5,0-.76,1.31,12.46,5.48,11.71,6.77-.56,1-16.25-9.62-16.68-8.86s12.45,5.5,11.72,6.78c-.21.36-7.65-3.92-7.81-3.65-.77,1.34,8.55,3.43,7.89,4.57-.08.13,1.61,2.4,1.54,2.53-.68,1.18,2.9.79,2.52,1.46-.08.14-4.48-1.41-4.64-1.13-.65,1.13,2.78.75,2.41,1.39-.05.1-3-1.76-3.06-1.6-.38.66,13.13,6.77,12.77,7.39s-11.92-6.53-12.34-5.8,11,5.39,10.62,6.14c-.16.27-6.73-.24-6.91.08-.51.88,4.52,1.34,4,2.29-.05.09-1,1.25-1.05,1.31-.78,1.36,11.88,5.07,11.1,6.42-.22.38-11.14-3.26-11.38-2.85-.59,1,7,3,6.51,3.76-.17.29-5.56-.42-5.69-.21-.75,1.29,8.25,3.69,7.79,4.5-.13.22-7.09-.38-7.25-.11-.6,1,25.2,12.55,24.33,14.07-.4.69-16.63-5.74-17.06-5-1,1.82,21.92,11.38,21.36,12.35-.92,1.59-24.24-14.06-24.84-13-.75,1.3,18.36,8.22,17.32,10-.11.19-6.8-.72-7-.38-.87,1.51,10.86,4.7,10.17,5.88-.31.54-15.69-5.42-16.05-4.79s15,7.23,14.41,8.33c-.25.43-10.68-3.74-11-3.14s3,.44,2.45,1.41c-.07.11-1.64.89-1.68,1-.38.66,4.52,1.65,4.11,2.38-.09.16-5.26-.8-5.45-.47s12.07,6.58,11.89,6.88-9.61-3.51-9.91-3c-.13.22,9,4.75,8.84,5.11s-5.38.83-5.52,1.08c-.05.09,3.82,2.09,3.77,2.18s-2.91-1-3-.91,2.6,1.48,2.59,1.5" fill="none" stroke="#999" stroke-linecap="round" stroke-linejoin="round" stroke-width="0.97"/><path d="M349.33,180.52s2.83,1.6,2.81,1.63c-.23.4-10.28-2.12-10.54-1.66s9.41,5,9.2,5.32c-.32.55-11.75-6.14-12.2-5.35-.36.63,12,6.07,11.61,6.72-.25.43-10.29-1-10.46-.67-.29.5,5.55,2.71,5.34,3.09s-9.88-2.68-10.2-2.12c-.42.72,10.26,5.28,10,5.77-.1.18-6.5-.74-6.65-.49-.3.52,1.51.39,1.3.75,0,.07-1.58-.13-1.63-.06-.26.45,1.59.26,1.31.76-.17.3-6.81.61-6.95.86-.25.43,8.11,4,7.82,4.52-.17.29-5.5,1.13-5.7,1.48-.47.81,1.74.08,1.34.77-.21.37-8.16-.62-8.3-.38-.33.57,9.6,4.78,9.26,5.36-.14.23-4.3-1.37-4.45-1.12-.26.44,1.56.39,1.34.78-.11.19-2.83,2.5-2.93,2.69-.33.58,4.35,1.89,4.08,2.36-.08.14-4.78-.84-4.87-.67-.34.58,1.65.22,1.33.77-.18.31-6.91.16-7,.38-.35.61,8.87,4.51,8.6,5-.14.24-5.18-1.11-5.36-.79s1.77,0,1.31.76c-.06.1-2.14,1.08-2.2,1.18-.39.67,1.63.18,1.3.75-.05.09-1.3-.75-1.32-.7-.32.55,1.77-.06,1.3.75-.09.16-4.73,1-4.82,1.16-.26.45,7.91,3.71,7.53,4.36-.19.34-6.95.21-7.17.59s1.63.07,1.25.73c-.1.17-2.35,1.69-2.43,1.82-.27.47,1.55.18,1.24.72-.09.15-3.21-.3-3.29-.16-.4.69,3.49,1.54,3.28,1.9-.07.12-2.3-.09-2.36,0-.24.42,1.58.06,1.21.7l-.24.53c-.35.61,6.38,3,6.07,3.51-.51.88-14.21-4.31-14.59-3.65-.25.43,11.08,5.74,10.79,6.24s-10.2-3-10.4-2.67c-.35.6,11,5.56,10.65,6.16s-7.05-4.14-7.29-3.74c-.33.58,2.2.54,1.88,1.09-.06.1-2,.23-2,.29-.41.72,1.35.27,1.13.65-.13.22-5.66.24-5.86.58-.32.56,8.78,4.3,8.45,4.89,0,.07-1.08-.53-1.11-.48-.43.74,1.63.43,1.41.81,0,.08-1.9,1.78-2,1.89-.29.5,1-.37.6.35-.18.31-6-1.42-6.1-1.17-.42.73,1.26.24,1,.61s-7.48.06-7.75.53c-.36.62,6.3,3.17,6.09,3.52s-5.14.95-5.26,1.16c-.25.44,4.38,2,4.16,2.4s-7.34-3.32-7.49-3.07c-.25.44,3.34,1.28,3.06,1.77-.13.23,1.22,3.84,1.13,4-.26.45,1.22,0,.91.53,0,0-1.08-.16-1.09-.12-.31.54,1.25-.08.9.52-.07.12-.66,2.95-.78,3.14-.26.45,4.8,2.29,4.59,2.65s-7-1.3-7.19-.92c-.33.57,1.26-.27.83.48-.05.09,0,3.12-.07,3.27-.24.42,2.28.31,1.85,1.07-.13.23-4.11-1.48-4.19-1.35-.35.6,1.17-.23.78.45,0,.07-1.34.8-1.4.89-.29.5,1.2-.33.76.44-.24.41-7.81.45-8,.82s8,3.8,7.64,4.42c-.17.29-4.05,2.29-4.18,2.53-.28.49,1.12-.38.68.39-.2.34-8-.93-8.28-.5-.38.66,7.59,3.92,7.39,4.27s-8.29.12-8.51.52c-.38.67,6.23,2.79,5.88,3.4l-.6,1.16c-.36.63,2.15.32,1.75,1-.25.44-7.58-1.51-7.85-1s8.35,4.12,8,4.65c-.05.09.81,1.91.74,2-.31.53,1.49.4,1.29.75s-6.58-3.77-6.84-3.33c-.37.64.91-.1.64.37-.06.11-1.44,1.33-1.47,1.39-.45.78,1.07-.39.63.37-.24.41-6.38-2.32-6.49-2.12-.43.74,2.51.78,2.22,1.28-.09.15,2.17,3.61,2,3.83-.37.65.92-.15.62.36,0,0-.72-.16-.74-.11-.34.6.92-.14.62.36,0,.05-.86.14-.89.19-.3.52.91-.13.62.36,0,.06-1.1.65-1.13.71-.26.45.93-.17.62.36-.06.1-1.83,2.19-1.89,2.29-.28.48,1.09-.34.67.39-.11.2-1.4,3.36-1.48,3.49-.37.64.37-.4.1.06,0,.08-1.47.62-1.51.69-.4.69,1.16-.18.8.46-.15.26-3.44,2.37-3.59,2.62s.48-.25.25.15c-.13.22,3.58,7,3.41,7.33-.45.78.54-.44.22.13-.14.25-4.8-2.94-4.92-2.74-.34.59,1.35,0,1,.59-.09.16-2.49,2.49-2.6,2.67-.23.4,1.43.11,1.12.65,0,.09-1.58.32-1.61.37-.39.68,1.46.14,1.15.67,0,.07-1.63.34-1.69.44-.21.36,1.62-.07,1.18.69l-1.74,3.12c-.45.77,2.08.72,1.87,1.08l-1.35,2.32c-.34.6,4.28,2,4.07,2.35s-7.61-2.15-7.78-1.86c-.3.51,1.75.26,1.42.82-.06.1-3.3-.42-3.36-.31-.36.62,2.73.61,2.31,1.34-.06.1.8,2.42.72,2.56-.32.55,4.29,1.38,3.81,2.21-.22.38-6.6-3.11-6.73-2.88-.42.73,2,.09,1.54.89-.29.51-8-4-8.22-3.6-.34.58,2.24.49,1.89,1.09-.15.26,3,5.25,2.83,5.58-.41.7,1.93.53,1.68,1-.08.14-3.06,1.87-3.18,2.08-.47.81,2.15.4,1.78,1-.09.15-3,1.39-3.08,1.58-.28.48,2.24.46,1.88,1.09-.07.12-2.44.91-2.5,1-.36.63.88-.24.56.32s-7.45.63-7.59.87c-.32.56,10.42,5.24,10.08,5.83-.14.25-3.59,1.62-3.68,1.77-.27.47.39-.41.12.07s-6.11-3.2-6.24-3c-.46.79,5.25,2.14,4.86,2.81-.2.34-6.56-.36-6.79,0-.32.55,6.49,2.86,6.1,3.53-.14.25-4.09-.37-4.16-.24-.4.7,2.88,1.09,2.63,1.52-.07.13-2,1.1-2,1.18-.34.58,5.67,2.42,5.3,3.06" fill="none" stroke="#999" stroke-linecap="round" stroke-linejoin="round" stroke-width="0.97"/><path d="M244.62,508.24c-.29.41,25.84,1.67,25.46-.12.56-.38,9.62-11.57.09-20.27.31,3.56.62-116.62,1-115.06-.12.45-4.78-7.69-5.14-5.24,0-2.27-17.34,1.1-17.56.44.21-2.28-4.7,3.64-4.8,3.36-.24,3.15.41,120.28.37,121.8-.14-2-8.7,3,.17,15.93-.27,1-.1-1.12.16.65C243.93,510.21,244.07,512.28,244.62,508.24Z" fill="none" stroke="#666" stroke-width="2.42"/><path d="M257.58,1.75C200.09-3.07,155.72,58.46,156.44,129.3c0,76.39,44.21,136.84,102.57,132,56.32,10.43,102.19-57.81,96.83-123.1C358.13,61.44,312.74-2.85,257.58,1.75Zm0,16.21c47.68-4.22,88.26,49.74,85.39,111.83,3.48,67-37.22,119.94-84.16,115.69-48.7,9.14-88-50.66-89.14-107.89C168.12,70.31,207.84,13.93,257.55,18Z" fill="none" stroke="#666" stroke-width="2.42"/><path d="M178.68,182.2c-10.21-3.47-15.4-2.8-15.07-3-1.17,1,33.75,81.3,37.58,81.64-.06,8,56,119.21,55.1,124.8,1.75.61,39.32-79.82,40.87-85.58,1.76-3.43,55.46-116.87,52.45-118.08,3.4-5-5.57-1.18-12.78-1.5-14.41,36.48-41.48,86.05-39.61,88.27-2.14,3.91-39.54,79.87-42,79.41-3.06-.67-55.33-111.88-57.43-116.23.43-3.21-9.8-30.24-21.15-53.86C175.23,182.44,176,178.7,178.68,182.2Z" fill="none" stroke="#666" stroke-width="2.42"/><path d="M244.32,510.49c.46-2.48,25.93-2.31,26.63-2-.6-1.29,8.18-13.64-.58-19.76-.29.28.45-115,.77-116.53-.48.58-5.32-2.43-4.18-3.78-1,.61-17.81,1.15-17.68-1.07-.78,2.9-5.83,7.35-6,4.39.7,3.33,1,118.06.87,119.51-.45-.69-8.29.28.46,18.77-.45-2.8-.17-.7-.54.63C244.79,508.17,244,507.56,244.32,510.49Z" fill="none" stroke="#4c4c4c" stroke-width="1.81"/><path d="M259,1c-53-.73-97.8,61.41-106.28,132.63,6.92,70,45.35,128.7,107.83,135.49,51.85-4,98.49-65.15,98.81-135.69C359.09,59.06,314.82,2.12,259,1Zm-.22,16.3c49.63-.64,88.28,53.86,84.44,116.28,2.49,61.36-41.65,112.8-83.1,118.75-50.63-3.54-87.71-57.1-90.93-118.93C172.44,68.22,211.57,18.29,258.74,17.32Z" fill="none" stroke="#4c4c4c" stroke-width="1.81"/><path d="M178.37,181.65c-3.75-.37-10,1.67-18.25-1.1,5.3,1.22,35,79.54,41.3,83.91-.86,1.66,55.69,115.14,56.24,119.61,3.12-2.75,35.48-83.34,40.14-82.4,1.45-4.24,53.25-116.94,57.08-123.11-3.89,1.72-13.25,3.53-16.73-.23-17.76,38.05-41.92,90.21-41.66,91.28-2.68.81-40.89,82.35-37,83.25-6.54-3.33-56.74-116.28-57.32-120.76-4.63,2.16-16-26.27-27.7-53.57C178.43,183.46,180.55,182.49,178.37,181.65Z" fill="none" stroke="#4c4c4c" stroke-width="1.81"/></svg>